# 3ds Max Wavefront OBJ Exporter v0.97b - (c)2007 guruware
# File Created: 28.08.2020 21:36:21

#
# object Box001
#

v  -2.0000 0.0000 3.0000
v  -2.0000 0.0000 -3.0000
v  0.0000 0.0000 -3.0000
v  0.0000 0.0000 3.0000
v  2.0000 0.0000 -3.0000
v  2.0000 0.0000 3.0000
v  -2.0000 4.9509 3.0000
v  0.0000 6.7006 3.0000
v  0.0000 6.7006 -3.0000
v  -2.0000 4.9509 -3.0000
v  2.0000 4.9509 3.0000
v  2.0000 4.9509 -3.0000
v  -2.1944 0.0000 3.3018
v  -2.1944 0.0000 3.0018
v  -1.3167 0.0000 3.0018
v  -1.3167 0.0000 3.3018
v  -0.4389 0.0000 3.0018
v  -0.4389 0.0000 3.3018
v  0.4389 0.0000 3.3018
v  0.4389 0.0000 3.0018
v  1.3167 0.0000 3.0018
v  1.3167 0.0000 3.3018
v  2.1944 0.0000 3.0018
v  2.1944 0.0000 3.3018
v  -2.1944 5.7131 3.3018
v  -1.3167 5.7131 3.3018
v  -1.3167 5.7131 3.0018
v  -2.1944 5.7131 3.0018
v  -1.3167 6.4640 3.3018
v  -0.4389 6.4640 3.3018
v  -0.4389 6.4640 3.0018
v  -1.3167 6.4640 3.0018
v  -0.4389 7.2148 3.3018
v  0.4389 7.2148 3.3018
v  0.4389 7.2148 3.0018
v  -0.4389 7.2148 3.0018
v  0.4389 6.4640 3.3018
v  1.3167 6.4640 3.3018
v  1.3167 6.4640 3.0018
v  0.4389 6.4640 3.0018
v  1.3167 5.7131 3.3018
v  2.1944 5.7131 3.3018
v  2.1944 5.7131 3.0018
v  1.3167 5.7131 3.0018
v  -1.3167 1.3088 3.3018
v  -2.1944 1.3088 3.3018
v  -0.4389 1.3088 3.3018
v  1.3167 1.3088 3.3018
v  0.4389 1.3088 3.3018
v  2.1944 1.3088 3.3018
v  2.1944 1.3088 3.0018
v  1.3167 1.3088 3.0018
v  0.4389 1.3088 3.0018
v  -1.3167 1.3088 3.0018
v  -0.4389 1.3088 3.0018
v  -2.1944 1.3088 3.0018
v  -0.4389 5.7131 3.3018
v  0.4389 5.7131 3.3018
v  0.4389 5.7131 3.0018
v  -0.4389 5.7131 3.0018
v  -2.1944 0.0000 -3.0029
v  -2.1944 0.0000 -3.3029
v  -1.3167 0.0000 -3.3029
v  -1.3167 0.0000 -3.0029
v  -0.4389 0.0000 -3.3029
v  -0.4389 0.0000 -3.0029
v  0.4389 0.0000 -3.3029
v  0.4389 0.0000 -3.0029
v  1.3167 0.0000 -3.3029
v  1.3167 0.0000 -3.0029
v  2.1944 0.0000 -3.3029
v  2.1944 0.0000 -3.0029
v  -2.1944 5.7131 -3.0029
v  -1.3167 5.7131 -3.0029
v  -1.3167 5.7131 -3.3029
v  -2.1944 5.7131 -3.3029
v  -1.3167 6.4640 -3.0029
v  -0.4389 6.4640 -3.0029
v  -0.4389 6.4640 -3.3029
v  -1.3167 6.4640 -3.3029
v  -0.4389 7.2148 -3.0029
v  0.4389 7.2148 -3.0029
v  0.4389 7.2148 -3.3029
v  -0.4389 7.2148 -3.3029
v  0.4389 6.4640 -3.0029
v  1.3167 6.4640 -3.0029
v  1.3167 6.4640 -3.3029
v  0.4389 6.4640 -3.3029
v  1.3167 5.7131 -3.0029
v  2.1944 5.7131 -3.0029
v  2.1944 5.7131 -3.3029
v  1.3167 5.7131 -3.3029
v  -0.4389 5.7131 -3.0029
v  0.4389 5.7131 -3.0029
v  0.4389 5.7131 -3.3029
v  -0.4389 5.7131 -3.3029
# 96 vertices

vn 0.0000 -1.0000 -0.0000
vn -0.6585 0.7526 -0.0000
vn 0.0000 1.0000 -0.0000
vn 0.6585 0.7526 -0.0000
vn 0.0000 0.0000 1.0000
vn 1.0000 0.0000 -0.0000
vn 0.0000 0.0000 -1.0000
vn -1.0000 0.0000 -0.0000
# 8 vertex normals

vt 1.0000 0.0000 0.0000
vt 1.0000 1.0000 0.0000
vt 0.5000 1.0000 0.0000
vt 0.5000 0.0000 0.0000
vt 0.0000 1.0000 0.0000
vt 0.0000 0.0000 0.0000
vt 0.8000 1.0000 0.0000
vt 0.8000 0.0000 0.0000
vt 0.6000 1.0000 0.0000
vt 0.6000 0.0000 0.0000
vt 0.4000 0.0000 0.0000
vt 0.4000 1.0000 0.0000
vt 0.2000 1.0000 0.0000
vt 0.2000 0.0000 0.0000
vt 0.2000 0.5000 0.0000
vt 0.0000 0.5000 0.0000
vt 0.4000 0.5000 0.0000
vt 0.8000 0.5000 0.0000
vt 0.6000 0.5000 0.0000
vt 1.0000 0.5000 0.0000
# 20 texture coords

g Box001
s 2
f 1/1/1 2/2/1 3/3/1 
f 3/3/1 4/4/1 1/1/1 
f 4/4/1 3/3/1 5/5/1 
f 5/5/1 6/6/1 4/4/1 
s 4
f 7/6/2 8/4/3 9/3/3 
f 9/3/3 10/5/2 7/6/2 
f 8/4/3 11/1/4 12/2/4 
f 12/2/4 9/3/3 8/4/3 
s 8
f 1/6/5 4/4/5 8/3/5 
f 8/3/5 7/5/5 1/6/5 
f 4/4/5 6/1/5 11/2/5 
f 11/2/5 8/3/5 4/4/5 
s 16
f 6/6/6 5/1/6 12/2/6 
f 12/2/6 11/5/6 6/6/6 
s 32
f 5/6/7 3/4/7 9/3/7 
f 9/3/7 12/5/7 5/6/7 
f 3/4/7 2/1/7 10/2/7 
f 10/2/7 9/3/7 3/4/7 
s 64
f 2/6/8 1/1/8 7/2/8 
f 7/2/8 10/5/8 2/6/8 
s 2
f 13/1/1 14/2/1 15/7/1 
f 15/7/1 16/8/1 13/1/1 
f 16/8/1 15/7/1 17/9/1 
f 17/9/1 18/10/1 16/8/1 
f 19/11/1 20/12/1 21/13/1 
f 21/13/1 22/14/1 19/11/1 
f 22/14/1 21/13/1 23/5/1 
f 23/5/1 24/6/1 22/14/1 
s 4
f 25/6/3 26/14/3 27/13/3 
f 27/13/3 28/5/3 25/6/3 
f 29/14/3 30/11/3 31/12/3 
f 31/12/3 32/13/3 29/14/3 
f 33/11/3 34/10/3 35/9/3 
f 35/9/3 36/12/3 33/11/3 
f 37/10/3 38/8/3 39/7/3 
f 39/7/3 40/9/3 37/10/3 
f 41/8/3 42/1/3 43/2/3 
f 43/2/3 44/7/3 41/8/3 
s 8
f 16/14/5 45/15/5 46/16/5 
f 46/16/5 13/6/5 16/14/5 
f 18/11/5 47/17/5 45/15/5 
f 45/15/5 16/14/5 18/11/5 
f 22/8/5 48/18/5 49/19/5 
f 49/19/5 19/10/5 22/8/5 
f 24/1/5 50/20/5 48/18/5 
f 48/18/5 22/8/5 24/1/5 
s 16
f 23/1/6 51/20/6 50/16/6 
f 50/16/6 24/6/6 23/1/6 
s 32
f 21/14/7 52/15/7 51/16/7 
f 51/16/7 23/6/7 21/14/7 
f 20/11/7 53/17/7 52/15/7 
f 52/15/7 21/14/7 20/11/7 
f 15/8/7 54/18/7 55/19/7 
f 55/19/7 17/10/7 15/8/7 
f 14/1/7 56/20/7 54/18/7 
f 54/18/7 15/8/7 14/1/7 
s 64
f 13/1/8 46/20/8 56/16/8 
f 56/16/8 14/6/8 13/1/8 
s off
f 27/13/8 26/14/8 29/14/8 
f 29/14/8 32/13/8 27/13/8 
f 26/14/5 57/11/5 30/11/5 
f 30/11/5 29/14/5 26/14/5 
f 57/11/5 58/10/5 37/10/5 
f 37/10/5 30/11/5 57/11/5 
f 58/10/5 41/8/5 38/8/5 
f 38/8/5 37/10/5 58/10/5 
f 41/8/6 44/7/6 39/7/6 
f 39/7/6 38/8/6 41/8/6 
f 44/7/7 59/9/7 40/9/7 
f 40/9/7 39/7/7 44/7/7 
f 59/9/7 60/12/7 31/12/7 
f 31/12/7 40/9/7 59/9/7 
f 60/12/7 27/13/7 32/13/7 
f 32/13/7 31/12/7 60/12/7 
f 31/12/8 30/11/8 33/11/8 
f 33/11/8 36/12/8 31/12/8 
f 30/11/5 37/10/5 34/10/5 
f 34/10/5 33/11/5 30/11/5 
f 37/10/6 40/9/6 35/9/6 
f 35/9/6 34/10/6 37/10/6 
f 40/9/7 31/12/7 36/12/7 
f 36/12/7 35/9/7 40/9/7 
s 8
f 26/13/5 25/5/5 46/16/5 
f 46/16/5 45/15/5 26/13/5 
f 57/12/5 26/13/5 45/15/5 
f 45/15/5 47/17/5 57/12/5 
f 58/9/5 57/12/5 47/17/5 
f 47/17/5 49/19/5 58/9/5 
f 41/7/5 58/9/5 49/19/5 
f 49/19/5 48/18/5 41/7/5 
f 42/2/5 41/7/5 48/18/5 
f 48/18/5 50/20/5 42/2/5 
s 16
f 43/2/6 42/5/6 50/16/6 
f 50/16/6 51/20/6 43/2/6 
s 32
f 44/13/7 43/5/7 51/16/7 
f 51/16/7 52/15/7 44/13/7 
f 59/12/7 44/13/7 52/15/7 
f 52/15/7 53/17/7 59/12/7 
f 60/9/7 59/12/7 53/17/7 
f 53/17/7 55/19/7 60/9/7 
f 27/7/7 60/9/7 55/19/7 
f 55/19/7 54/18/7 27/7/7 
f 28/2/7 27/7/7 54/18/7 
f 54/18/7 56/20/7 28/2/7 
s 64
f 25/2/8 28/5/8 56/16/8 
f 56/16/8 46/20/8 25/2/8 
s 1
f 55/1/6 47/5/6 18/10/6 
f 18/10/6 17/9/6 55/1/6 
s 2
f 53/8/1 49/2/1 47/5/1 
f 47/5/1 55/1/1 53/8/1 
s 1
f 20/12/8 19/11/8 49/2/8 
f 49/2/8 53/8/8 20/12/8 
s 2
f 61/1/1 62/2/1 63/7/1 
f 63/7/1 64/8/1 61/1/1 
f 64/8/1 63/7/1 65/9/1 
f 65/9/1 66/10/1 64/8/1 
f 66/10/1 65/9/1 67/12/1 
f 67/12/1 68/11/1 66/10/1 
f 68/11/1 67/12/1 69/13/1 
f 69/13/1 70/14/1 68/11/1 
f 70/14/1 69/13/1 71/5/1 
f 71/5/1 72/6/1 70/14/1 
s 4
f 73/6/3 74/14/3 75/13/3 
f 75/13/3 76/5/3 73/6/3 
f 77/14/3 78/11/3 79/12/3 
f 79/12/3 80/13/3 77/14/3 
f 81/11/3 82/10/3 83/9/3 
f 83/9/3 84/12/3 81/11/3 
f 85/10/3 86/8/3 87/7/3 
f 87/7/3 88/9/3 85/10/3 
f 89/8/3 90/1/3 91/2/3 
f 91/2/3 92/7/3 89/8/3 
s 8
f 61/6/5 64/14/5 74/13/5 
f 74/13/5 73/5/5 61/6/5 
f 64/14/5 66/11/5 93/12/5 
f 93/12/5 74/13/5 64/14/5 
f 66/11/5 68/10/5 94/9/5 
f 94/9/5 93/12/5 66/11/5 
f 68/10/5 70/8/5 89/7/5 
f 89/7/5 94/9/5 68/10/5 
f 70/8/5 72/1/5 90/2/5 
f 90/2/5 89/7/5 70/8/5 
s 16
f 72/6/6 71/1/6 91/2/6 
f 91/2/6 90/5/6 72/6/6 
s 32
f 71/6/7 69/14/7 92/13/7 
f 92/13/7 91/5/7 71/6/7 
f 69/14/7 67/11/7 95/12/7 
f 95/12/7 92/13/7 69/14/7 
f 67/11/7 65/10/7 96/9/7 
f 96/9/7 95/12/7 67/11/7 
f 65/10/7 63/8/7 75/7/7 
f 75/7/7 96/9/7 65/10/7 
f 63/8/7 62/1/7 76/2/7 
f 76/2/7 75/7/7 63/8/7 
s 64
f 62/6/8 61/1/8 73/2/8 
f 73/2/8 76/5/8 62/6/8 
s off
f 75/13/8 74/14/8 77/14/8 
f 77/14/8 80/13/8 75/13/8 
f 74/14/5 93/11/5 78/11/5 
f 78/11/5 77/14/5 74/14/5 
f 93/11/5 94/10/5 85/10/5 
f 85/10/5 78/11/5 93/11/5 
f 94/10/5 89/8/5 86/8/5 
f 86/8/5 85/10/5 94/10/5 
f 89/8/6 92/7/6 87/7/6 
f 87/7/6 86/8/6 89/8/6 
f 92/7/7 95/9/7 88/9/7 
f 88/9/7 87/7/7 92/7/7 
f 95/9/7 96/12/7 79/12/7 
f 79/12/7 88/9/7 95/9/7 
f 96/12/7 75/13/7 80/13/7 
f 80/13/7 79/12/7 96/12/7 
f 79/12/8 78/11/8 81/11/8 
f 81/11/8 84/12/8 79/12/8 
f 78/11/5 85/10/5 82/10/5 
f 82/10/5 81/11/5 78/11/5 
f 85/10/6 88/9/6 83/9/6 
f 83/9/6 82/10/6 85/10/6 
f 88/9/7 79/12/7 84/12/7 
f 84/12/7 83/9/7 88/9/7 
# 180 faces

