# Blender v2.90.1 OBJ File: ''
# www.blender.org
o Plane_Plane.003
v -0.500000 0.000000 0.500000
v 0.500000 0.000000 0.500000
v -0.500000 0.000000 -0.500000
v 0.500000 0.000000 -0.500000
v -0.351250 0.000000 -0.351250
v -0.351250 0.000000 0.351250
v 0.351250 0.000000 0.351250
v 0.351250 0.000000 -0.351250
v -0.198512 0.715777 -0.198512
v -0.198512 0.715777 0.198512
v 0.198512 0.715777 0.198512
v 0.198512 0.715777 -0.198512
v -0.073951 0.875823 -0.073951
v -0.073951 0.875823 0.073951
v 0.073951 0.875823 0.073951
v 0.073951 0.875823 -0.073951
vt 0.148750 0.851250
vt 0.851250 0.851250
vt 0.851250 0.851250
vt 0.000000 0.000000
vt 0.148750 0.148750
vt 1.000000 0.000000
vt 0.851250 0.148750
vt 1.000000 1.000000
vt 0.000000 1.000000
vt 0.851250 0.148750
vt 0.851250 0.148750
vt 0.148750 0.148750
vt 0.148750 0.851250
vt 0.148750 0.851250
vt 0.148750 0.148750
vt 0.851250 0.851250
vn -0.2380 0.9416 -0.2380
vn 0.6183 0.4851 -0.6183
vn 0.2380 0.9416 -0.2380
vn 0.0000 1.0000 0.0000
vn -0.2380 0.9416 0.2380
vn 0.2380 0.9416 0.2380
vn 0.3487 0.8699 0.3487
vn 0.6183 0.4851 0.6183
vn -0.6183 0.4851 0.6183
vn -0.6183 0.4851 -0.6183
vn -0.3487 0.8699 -0.3487
vn -0.3487 0.8699 0.3487
vn 0.3487 0.8699 -0.3487
s 1
f 5/1/1 12/2/2 8/3/3
f 5/1/1 1/4/4 6/5/5
f 6/5/5 2/6/4 7/7/6
f 7/7/6 4/8/4 8/3/3
f 8/3/3 3/9/4 5/1/1
f 12/2/2 15/10/7 11/11/8
f 7/7/6 10/12/9 6/5/5
f 8/3/3 11/11/8 7/7/6
f 6/5/5 9/13/10 5/1/1
f 15/10/7 13/14/11 14/15/12
f 10/12/9 13/14/11 9/13/10
f 9/13/10 16/16/13 12/2/2
f 11/11/8 14/15/12 10/12/9
f 5/1/1 9/13/10 12/2/2
f 5/1/1 3/9/4 1/4/4
f 6/5/5 1/4/4 2/6/4
f 7/7/6 2/6/4 4/8/4
f 8/3/3 4/8/4 3/9/4
f 12/2/2 16/16/13 15/10/7
f 7/7/6 11/11/8 10/12/9
f 8/3/3 12/2/2 11/11/8
f 6/5/5 10/12/9 9/13/10
f 15/10/7 16/16/13 13/14/11
f 10/12/9 14/15/12 13/14/11
f 9/13/10 13/14/11 16/16/13
f 11/11/8 15/10/7 14/15/12
